<svg width="71" height="71" viewBox="0 0 71 71" fill="none" xmlns="http://www.w3.org/2000/svg">
<path d="M35.9009 6.65698C19.6791 6.43788 6.43592 19.681 6.65502 35.9029C6.87135 51.4605 19.539 64.1281 35.0966 64.3445C51.3212 64.5663 64.5616 51.3232 64.3398 35.1014C64.1262 19.541 51.4585 6.87331 35.9009 6.65698ZM33.5726 33.3472L40.7212 25.1655C41.1084 24.7223 41.6559 24.4512 42.2431 24.4116C42.8303 24.3721 43.4092 24.5675 43.8524 24.9547C44.2955 25.342 44.5667 25.8895 44.6063 26.4767C44.6458 27.0639 44.4504 27.6428 44.0631 28.0859L36.9146 36.2676C36.7229 36.487 36.4898 36.6665 36.2286 36.7959C35.9675 36.9252 35.6834 37.0019 35.3927 37.0215C35.1019 37.041 34.8101 37.0032 34.534 36.91C34.2579 36.8168 34.0028 36.6701 33.7834 36.4784C33.564 36.2866 33.3844 36.0535 33.2551 35.7924C33.1257 35.5312 33.0491 35.2472 33.0295 34.9564C33.0099 34.6657 33.0478 34.3739 33.141 34.0978C33.2342 33.8217 33.3809 33.5666 33.5726 33.3472ZM28.1838 45.9455C27.7678 46.3613 27.2037 46.5948 26.6155 46.5948C26.0273 46.5948 25.4631 46.3613 25.0471 45.9455L18.3978 39.2892C18.1918 39.0831 18.0285 38.8384 17.9171 38.5691C17.8057 38.2999 17.7484 38.0113 17.7485 37.7199C17.7486 37.4285 17.8062 37.14 17.9178 36.8708C18.0294 36.6016 18.193 36.3571 18.3991 36.1511C18.6053 35.9451 18.85 35.7818 19.1193 35.6704C19.3885 35.559 19.6771 35.5017 19.9685 35.5019C20.2599 35.502 20.5484 35.5595 20.8176 35.6711C21.0868 35.7828 21.3313 35.9463 21.5373 36.1525L28.1935 42.8087C28.608 43.2261 28.8399 43.7909 28.838 44.3791C28.8362 44.9673 28.6009 45.5307 28.1838 45.9455ZM52.701 28.0859L37.1864 45.8359C36.9865 46.065 36.7417 46.2505 36.4671 46.381C36.1926 46.5115 35.8941 46.5841 35.5903 46.5945H35.5154C35.2239 46.5945 34.9352 46.5371 34.6658 46.4255C34.3965 46.3139 34.1517 46.1503 33.9457 45.9441L27.2977 39.2879C26.8818 38.8715 26.6482 38.307 26.6485 37.7185C26.6487 37.13 26.8828 36.5657 27.2991 36.1497C27.7154 35.7338 28.2799 35.5002 28.8685 35.5005C29.457 35.5007 30.0213 35.7348 30.4373 36.1511L34.5697 40.2877C34.6771 40.3951 34.8055 40.4794 34.9468 40.5352C35.0881 40.591 35.2394 40.6172 35.3913 40.6121C35.5431 40.607 35.6923 40.5708 35.8296 40.5057C35.9669 40.4406 36.0893 40.348 36.1894 40.2336L49.3632 25.1655C49.7505 24.7223 50.2979 24.4512 50.8851 24.4116C51.4724 24.3721 52.0512 24.5675 52.4944 24.9547C52.9376 25.342 53.2088 25.8895 53.2483 26.4767C53.2878 27.0639 53.0924 27.6428 52.7052 28.0859H52.701Z" fill="#AEAEAE"/>
</svg>
