<svg width="40" height="41" viewBox="0 0 40 41" fill="none" xmlns="http://www.w3.org/2000/svg">
<path d="M19.9987 3.83398C29.2037 3.83398 36.6654 11.2957 36.6654 20.5007C36.6654 29.7057 29.2037 37.1673 19.9987 37.1673C10.7937 37.1673 3.33203 29.7057 3.33203 20.5007C3.33203 11.2957 10.7937 3.83398 19.9987 3.83398ZM19.9987 10.5007C19.5567 10.5007 19.1328 10.6762 18.8202 10.9888C18.5076 11.3014 18.332 11.7253 18.332 12.1673V20.5007C18.3321 20.9426 18.5078 21.3665 18.8204 21.679L23.8204 26.679C24.1347 26.9826 24.5557 27.1506 24.9927 27.1468C25.4297 27.143 25.8477 26.9677 26.1567 26.6587C26.4657 26.3497 26.641 25.9317 26.6448 25.4947C26.6486 25.0577 26.4806 24.6367 26.177 24.3223L21.6654 19.8107V12.1673C21.6654 11.7253 21.4898 11.3014 21.1772 10.9888C20.8647 10.6762 20.4407 10.5007 19.9987 10.5007Z" fill="#F3C03F"/>
</svg>
