<svg width="24" height="24" viewBox="0 0 24 24" fill="none" xmlns="http://www.w3.org/2000/svg">
<path d="M4.93304 4.28516C4.08055 4.28516 3.26299 4.6238 2.66019 5.2266C2.0574 5.82939 1.71875 6.64696 1.71875 7.49944V8.1423H22.2867V7.49944C22.2867 6.64696 21.9481 5.82939 21.3453 5.2266C20.7425 4.6238 19.9249 4.28516 19.0725 4.28516H4.93304ZM1.71875 16.4994V9.42801H22.2867V16.4994C22.2867 17.3519 21.9481 18.1695 21.3453 18.7723C20.7425 19.3751 19.9249 19.7137 19.0725 19.7137H4.93389C4.08141 19.7137 3.26385 19.3751 2.66105 18.7723C2.05825 18.1695 1.71961 17.3519 1.71961 16.4994M15.6439 14.1423C15.4734 14.1423 15.3099 14.21 15.1893 14.3306C15.0688 14.4511 15.001 14.6147 15.001 14.7852C15.001 14.9557 15.0688 15.1192 15.1893 15.2397C15.3099 15.3603 15.4734 15.428 15.6439 15.428H18.6439C18.8144 15.428 18.9779 15.3603 19.0985 15.2397C19.219 15.1192 19.2867 14.9557 19.2867 14.7852C19.2867 14.6147 19.219 14.4511 19.0985 14.3306C18.9779 14.21 18.8144 14.1423 18.6439 14.1423H15.6439Z" fill="#AEAEAE"/>
</svg>
