<svg width="40" height="41" viewBox="0 0 40 41" fill="none" xmlns="http://www.w3.org/2000/svg">
<path d="M19.9987 19.6673C18.8936 19.6673 17.8338 19.2283 17.0524 18.4469C16.271 17.6655 15.832 16.6057 15.832 15.5007C15.832 14.3956 16.271 13.3358 17.0524 12.5544C17.8338 11.773 18.8936 11.334 19.9987 11.334C21.1038 11.334 22.1636 11.773 22.945 12.5544C23.7264 13.3358 24.1654 14.3956 24.1654 15.5007C24.1654 16.0478 24.0576 16.5896 23.8482 17.0952C23.6388 17.6007 23.3319 18.06 22.945 18.4469C22.5581 18.8338 22.0987 19.1408 21.5932 19.3501C21.0877 19.5595 20.5459 19.6673 19.9987 19.6673ZM19.9987 3.83398C16.9045 3.83398 13.937 5.06315 11.7491 7.25107C9.56119 9.439 8.33203 12.4065 8.33203 15.5007C8.33203 24.2507 19.9987 37.1673 19.9987 37.1673C19.9987 37.1673 31.6654 24.2507 31.6654 15.5007C31.6654 12.4065 30.4362 9.439 28.2483 7.25107C26.0604 5.06315 23.0929 3.83398 19.9987 3.83398Z" fill="#F3C03F"/>
</svg>
