<svg width="40" height="41" viewBox="0 0 40 41" fill="none" xmlns="http://www.w3.org/2000/svg">
<path fill-rule="evenodd" clip-rule="evenodd" d="M26.8935 8.37911L29.9435 11.4291C34.4251 15.9124 36.6651 18.1524 36.6651 20.9358C36.6651 23.7208 34.4251 25.9608 29.9435 30.4424C25.4601 34.9258 23.2201 37.1658 20.4351 37.1658C17.6518 37.1658 15.4101 34.9258 10.9285 30.4441L7.87848 27.3941C5.30348 24.8174 4.01514 23.5308 3.53681 21.8591C3.05681 20.1874 3.46681 18.4124 4.28681 14.8641L4.75848 12.8174C5.44681 9.83077 5.79181 8.33744 6.81348 7.31411C7.83514 6.29077 9.33014 5.94744 12.3168 5.25911L14.3635 4.78577C17.9135 3.96744 19.6868 3.55744 21.3585 4.03577C23.0301 4.51577 24.3185 5.80411 26.8935 8.37911ZM18.5751 24.3791C17.4535 23.2591 17.4618 21.6491 18.1335 20.3741C17.9672 20.1339 17.8903 19.8431 17.9161 19.5521C17.9419 19.2611 18.0688 18.9884 18.2748 18.7812C18.4808 18.5741 18.7528 18.4456 19.0436 18.4181C19.3344 18.3906 19.6257 18.4659 19.8668 18.6308C20.4335 18.3308 21.0551 18.1708 21.6751 18.1774C22.0067 18.1805 22.3234 18.3152 22.5556 18.5518C22.7878 18.7884 22.9166 19.1076 22.9135 19.4391C22.9104 19.7706 22.7757 20.0873 22.5391 20.3196C22.3025 20.5518 21.9833 20.6805 21.6518 20.6774C21.2659 20.6917 20.9012 20.8576 20.6368 21.1391C19.9918 21.7841 20.1601 22.4308 20.3418 22.6124C20.5251 22.7941 21.1701 22.9624 21.8151 22.3174C23.1218 21.0108 25.3785 20.5774 26.8235 22.0224C27.9451 23.1441 27.9368 24.7541 27.2652 26.0291C27.4304 26.2693 27.5064 26.5598 27.4802 26.8501C27.4539 27.1405 27.3269 27.4126 27.1212 27.6192C26.9156 27.8259 26.6441 27.9542 26.3539 27.9818C26.0636 28.0095 25.7728 27.9349 25.5318 27.7708C24.7839 28.1811 23.9163 28.3179 23.0785 28.1574C22.7536 28.0907 22.4685 27.8976 22.286 27.6207C22.1035 27.3438 22.0384 27.0057 22.1051 26.6808C22.1719 26.3559 22.365 26.0708 22.6419 25.8883C22.9188 25.7057 23.2569 25.6407 23.5818 25.7074C23.8768 25.7691 24.3535 25.6724 24.7618 25.2641C25.4068 24.6174 25.2385 23.9724 25.0568 23.7908C24.8735 23.6091 24.2285 23.4408 23.5835 24.0858C22.2768 25.3924 20.0201 25.8258 18.5751 24.3791ZM16.6985 17.6541C17.008 17.3445 17.2534 16.977 17.4209 16.5725C17.5883 16.1681 17.6745 15.7346 17.6744 15.2969C17.6743 14.8591 17.588 14.4257 17.4204 14.0213C17.2528 13.6169 17.0072 13.2494 16.6976 12.9399C16.3881 12.6305 16.0205 12.385 15.6161 12.2175C15.2116 12.0501 14.7781 11.9639 14.3404 11.964C13.9026 11.9641 13.4692 12.0504 13.0648 12.218C12.6604 12.3856 12.293 12.6312 11.9835 12.9408C11.3585 13.566 11.0074 14.414 11.0076 15.298C11.0077 16.1821 11.3591 17.0299 11.9843 17.6549C12.6096 18.28 13.4575 18.631 14.3416 18.6309C15.2256 18.6307 16.0735 18.2794 16.6985 17.6541Z" fill="#F3C03F"/>
</svg>
